<svg xmlns="http://www.w3.org/2000/svg" viewBox="0 0 18 18" class="icon"><path fill-rule="evenodd" d="M9 0a9 9 0 110 18A9 9 0 019 0zm4.738 7.412c-1.113 0-1.615 1.07-1.615 2.414 0 1.253.56 2.174 1.506 2.174.93 0 1.275-.866 1.359-1.542L15 10.34h-.547c-.096.663-.425 1.028-.805 1.028-.779 0-.92-.92-.92-1.667 0-.772.225-1.635.927-1.635.44 0 .687.297.778.8l.02.13H15c-.045-.756-.38-1.585-1.262-1.585zM8.958 6h-4.29L3 12h4.29l1.669-6zm.552 0H8.96v5.877h.52v-.532h.012l.068.131c.132.234.37.524.835.524 1.115 0 1.441-1.367 1.441-2.39 0-1.203-.495-2.137-1.366-2.137-.34.008-.635.17-.864.522l-.082.141H9.51V6zm.859 2.12c.762 0 .878.845.894 1.416l.002.188-.002.147c-.028.868-.312 1.507-.882 1.507-.35 0-.896-.303-.896-1.44 0-.697.088-1.818.884-1.818z"></path></svg>