<svg xmlns="http://www.w3.org/2000/svg" viewBox="0 0 17 17" class="icon"><path d="M9.238 6.8c1.198.107 2.153.984 2.303 2.147l.243 1.987c.038.268-.15.519-.374.554-.375.09-.768.144-1.161.197l-.281 4.653c-.019.376-.356.662-.73.662h-2.21c-.393 0-.712-.304-.73-.662l-.281-4.653a12.04 12.04 0 01-1.162-.197.496.496 0 01-.412-.554l.244-1.987C4.837 7.802 5.81 6.907 6.99 6.8c.337.125.73.197 1.124.197.393 0 .768-.072 1.124-.197zm4.382-1.557c1.198.108 2.172.984 2.322 2.148l.243 1.986a.516.516 0 01-.393.572 22.4 22.4 0 01-1.161.18l-.281 4.67c-.019.358-.337.644-.73.644h-2.21a.768.768 0 01-.524-.215l.168-2.81.355-.07.17-.036c.711-.144 1.18-.77 1.086-1.468l-.244-1.986c-.15-1.235-.992-2.22-2.116-2.666.3-.233.543-.537.73-.877a1.26 1.26 0 01.375-.072c.337.125.712.197 1.105.197.374 0 .749-.072 1.105-.197zm-8.802 0a2.3 2.3 0 01.375.072c.187.34.43.644.73.894-1.142.43-1.985 1.432-2.135 2.649l-.262 1.986c-.075.698.393 1.324 1.105 1.468.168.035.337.071.524.09l.169 2.809a.768.768 0 01-.525.214H2.59c-.393 0-.711-.286-.73-.644l-.28-4.67a22.4 22.4 0 01-1.162-.18.496.496 0 01-.412-.554L.286 7.39C.417 6.227 1.41 5.35 2.608 5.243c.337.125.73.197 1.105.197s.75-.072 1.105-.197zm3.277-3.686c1.334 0 2.416 1.033 2.416 2.308S9.429 6.174 8.095 6.174c-1.334 0-2.416-1.034-2.416-2.309 0-1.275 1.082-2.308 2.416-2.308zM12.496 0c1.33 0 2.416 1.038 2.416 2.308 0 1.27-1.086 2.309-2.416 2.309-.412 0-.805-.108-1.161-.286.037-.162.037-.305.037-.466 0-.93-.43-1.771-1.123-2.362C10.586.626 11.466 0 12.496 0zM3.694 0c1.03 0 1.91.626 2.248 1.485a3.072 3.072 0 00-1.124 2.362c0 .161 0 .322.037.466-.337.179-.749.286-1.16.286-1.33 0-2.416-1.02-2.416-2.29C1.279 1.037 2.365 0 3.694 0z"></path></svg>