<svg xmlns="http://www.w3.org/2000/svg" viewBox="0 0 18 18" class="icon"><path fill-rule="evenodd" d="M9 0a9 9 0 110 18A9 9 0 019 0zm1.128 4l-2.406.002-.468.011-.487.024c-.44.033-.76.112-1.042.222a2.45 2.45 0 00-.886.577 2.452 2.452 0 00-.577.886c-.123.318-.208.682-.232 1.214l-.021.58-.006.354v2.227l.013.648.024.487c.034.442.113.76.222 1.043.128.329.3.608.577.886.278.278.557.45.886.577.318.124.681.208 1.214.232l.524.02c.09.003.186.005.3.006h2.44c.164-.001.292-.004.412-.008l.176-.006.442-.022c.441-.033.76-.112 1.042-.222a2.45 2.45 0 00.886-.577c.278-.278.449-.557.577-.886.123-.318.208-.682.232-1.214l.02-.525.008-.485-.002-2.261-.017-.647-.02-.378a3.497 3.497 0 00-.221-1.043 2.452 2.452 0 00-.577-.886 2.45 2.45 0 00-.886-.577c-.318-.123-.681-.208-1.213-.232l-.58-.022A26.496 26.496 0 0010.127 4zm.893.927c.487.022.752.104.928.172.233.091.4.2.575.375.15.15.251.293.334.478l.04.097c.063.161.136.397.165.811l.026.588.005.27.005 1.58-.012 1.296c-.004.137-.01.264-.017.426-.02.447-.09.707-.155.883l-.017.046c-.09.233-.2.4-.374.575a1.549 1.549 0 01-.575.374 2.623 2.623 0 01-.811.165l-.672.028-.466.006-2.136-.001-.468-.009c-.133-.004-.258-.01-.416-.017-.488-.022-.753-.104-.929-.172-.233-.09-.4-.2-.575-.374a1.55 1.55 0 01-.374-.575 2.625 2.625 0 01-.165-.812l-.028-.672-.007-.794.002-1.809.014-.6.012-.285c.022-.487.104-.752.172-.928.09-.234.2-.4.374-.575a1.55 1.55 0 01.575-.375c.162-.062.398-.136.811-.165l.349-.017.234-.008c.12-.004.25-.006.419-.008h2.197c.437.003.623.01.96.026zM9.01 6.438a2.57 2.57 0 100 5.14 2.57 2.57 0 000-5.14zm0 .902a1.668 1.668 0 110 3.337 1.668 1.668 0 010-3.337zm2.649-1.616a.595.595 0 100 1.19.595.595 0 000-1.19z"></path></svg>