<svg xmlns="http://www.w3.org/2000/svg" viewBox="0 0 18 18" class="icon"><path fill-rule="evenodd" d="M9 0a9 9 0 110 18A9 9 0 019 0zm1.923 5c-1.133 0-2.05.989-2.05 2.209 0 .173.016.342.052.503-1.705-.093-3.216-.971-4.229-2.308a2.334 2.334 0 00-.277 1.11c0 .767.362 1.443.912 1.84a1.948 1.948 0 01-.93-.276v.027c0 1.07.707 1.963 1.647 2.165a1.873 1.873 0 01-.927.039c.26.877 1.018 1.517 1.917 1.534A3.934 3.934 0 014 12.758a5.515 5.515 0 003.145.992c3.774 0 5.837-3.366 5.837-6.285 0-.096-.002-.191-.006-.285.401-.312.75-.701 1.024-1.144a3.871 3.871 0 01-1.178.347c.424-.273.749-.706.902-1.221a3.933 3.933 0 01-1.304.536A1.98 1.98 0 0010.923 5z"></path></svg>