<svg xmlns="http://www.w3.org/2000/svg" viewBox="0 0 18 16" class="icon"><path fill-rule="evenodd" d="M15.88 2.44A3.866 3.866 0 0017.502.284a7.162 7.162 0 01-2.345.945A3.595 3.595 0 0012.462 0C10.422 0 8.77 1.744 8.77 3.894c0 .306.03.603.094.887C5.796 4.62 3.076 3.07 1.253.712a4.05 4.05 0 00-.5 1.959c0 1.35.652 2.543 1.643 3.243a3.56 3.56 0 01-1.673-.487v.048c0 1.887 1.272 3.462 2.963 3.818-.31.092-.636.137-.974.137-.238 0-.47-.023-.694-.069.47 1.547 1.833 2.675 3.45 2.705A7.17 7.17 0 010 13.679a10.07 10.07 0 005.66 1.75c6.794 0 10.507-5.935 10.507-11.082 0-.17-.002-.338-.01-.504A7.72 7.72 0 0018 1.826c-.662.31-1.375.52-2.12.613z"></path></svg>