<svg xmlns="http://www.w3.org/2000/svg" viewBox="0 0 18 18" class="icon" fill="#fff"><path fill-rule="evenodd" d="M9 0a9 9 0 110 18A9 9 0 019 0zm.296 5l-1.12.006-.586.01c-.42.01-.89.023-1.34.045l-.334.017-.416.028-.183.027a1.26 1.26 0 00-.817.468c-.24.273-.352.796-.39 1.023l-.017.11-.056.716-.013.239-.02.528L4 8.455v1.09l.011.485c.014.366.037.696.055.923l.027.313.017.113c.04.23.15.749.39 1.02.375.46.875.424 1.093.495l.31.021c.178.01.39.02.617.027l1.416.04L9.12 13l.853-.009c.578-.009 1.327-.027 2.006-.064l.52-.033.184-.028a1.26 1.26 0 00.817-.468c.216-.245.328-.693.376-.946l.03-.186.056-.716c.015-.244.029-.53.035-.826l.003-.3v-.969l-.012-.485a21.84 21.84 0 00-.038-.705l-.044-.53-.01-.067c-.03-.196-.139-.775-.396-1.067a1.243 1.243 0 00-.717-.448l-.086-.017-.197-.03-.453-.03a61.382 61.382 0 00-2.751-.075zm-1.66 2l3.637 2-3.637 2V7z"></path></svg>